<svg xmlns="http://www.w3.org/2000/svg" viewBox="0 0 800 800" fill="none"><defs></defs><rect x="0" y="0" width="800" height="800" rx="0" fill="#030712" /><path d="M 0 3 L 800 3" fill="none" stroke="#94a3b8" stroke-width="2" opacity="0.35"/><path d="M 0 60 L 800 60" fill="none" stroke="#94a3b8" stroke-width="2" opacity="0.35"/><path d="M 0 113 L 800 113" fill="none" stroke="#94a3b8" stroke-width="2" opacity="0.35"/><path d="M 0 175 L 800 175" fill="none" stroke="#94a3b8" stroke-width="2" opacity="0.35"/><path d="M 0 229 L 800 229" fill="none" stroke="#94a3b8" stroke-width="2" opacity="0.35"/><path d="M 0 281 L 800 281" fill="none" stroke="#94a3b8" stroke-width="2" opacity="0.35"/><path d="M 0 338 L 800 338" fill="none" stroke="#94a3b8" stroke-width="2" opacity="0.35"/><path d="M 0 395 L 800 395" fill="none" stroke="#94a3b8" stroke-width="2" opacity="0.35"/><path d="M 0 449 L 800 449" fill="none" stroke="#94a3b8" stroke-width="2" opacity="0.35"/><path d="M 0 512 L 800 512" fill="none" stroke="#94a3b8" stroke-width="2" opacity="0.35"/><path d="M 0 561 L 800 561" fill="none" stroke="#94a3b8" stroke-width="2" opacity="0.35"/><path d="M 0 621 L 800 621" fill="none" stroke="#94a3b8" stroke-width="2" opacity="0.35"/><path d="M 0 674 L 800 674" fill="none" stroke="#94a3b8" stroke-width="2" opacity="0.35"/><path d="M 0 730 L 800 730" fill="none" stroke="#94a3b8" stroke-width="2" opacity="0.35"/><path d="M 0 787 L 800 787" fill="none" stroke="#94a3b8" stroke-width="2" opacity="0.35"/></svg>